<?xml version="1.0" standalone="no"?><!DOCTYPE svg PUBLIC "-//W3C//DTD SVG 1.1//EN" "http://www.w3.org/Graphics/SVG/1.1/DTD/svg11.dtd"><svg t="1657167224266" class="icon" viewBox="0 0 1024 1024" version="1.1" xmlns="http://www.w3.org/2000/svg" p-id="840" xmlns:xlink="http://www.w3.org/1999/xlink" width="200" height="200"><defs><style type="text/css"></style></defs><path d="M770.555 338.304c-5.095 30.485-33.939 51.068-64.424 45.973L299.04 316.238c-30.485-5.095-51.068-33.939-45.973-64.424 5.095-30.485 33.939-51.068 64.424-45.973l407.091 68.039c30.485 5.095 51.068 33.938 45.973 64.424z" fill="#666666" p-id="841"></path><path d="M569.316 290.485c-5.095 30.485-33.375 51.163-64.424 45.973-31.049-5.189-51.068-33.939-45.973-64.424l21.334-127.647c5.095-30.485 33.939-51.068 64.424-45.973 30.485 5.095 51.068 33.939 45.973 64.424l-21.334 127.647zM772 456.955C772 418.32 740.68 387 702.045 387h-379.09C284.32 387 253 418.32 253 456.955v399.089C253 894.68 284.32 926 322.955 926h379.089C740.68 926 772 894.68 772 856.045v-399.09zM454 778.732c0 32.84-20.387 59.462-45.5 59.462S363 811.573 363 778.732V533.888c0-32.84 20.387-59.462 45.5-59.462s45.5 26.622 45.5 59.462v244.844z m208 0c0 32.84-20.387 59.462-45.5 59.462S571 811.573 571 778.732V533.888c0-32.84 20.387-59.462 45.5-59.462s45.5 26.622 45.5 59.462v244.844z" fill="#666666" p-id="842"></path><path d="M362.734 778.732c0 32.84 20.52 59.462 45.633 59.462S454 811.573 454 778.732V533.888c0-32.84-20.52-59.462-45.633-59.462s-45.552 26.622-45.552 59.462" fill="#FFFFFF" p-id="843"></path></svg>